PathFileType	3	(X/Y/Z)	D:\VICON_DB\Goncalves\Pilot01\09-03-2026\bw_sq_02.trc
DataRate	CameraRate	NumFrames	NumMarkers	Units	OrigDataRate	OrigDataStartFrame	OrigNumFrames
200.0	200.0	8	34	mm	200.0	336	670	
Frame#	Time	LASI			RASI			LPSI			RPSI			LTHI			LTHAP			LTHAD			LKNE			LKNM			LTIB			LTIAP			LTIAD			LANK			LMED			LHEE			LTOE			LFMH			LSMH			LVMH			RTHI			RTHAP			RTHAD			RKNE			RKNM			RTIB			RTIAP			RTIAD			RANK			RMED			RHEE			RTOE			RFMH			RSMH			RVMH			
		X1	Y1	Z1	X2	Y2	Z2	X3	Y3	Z3	X4	Y4	Z4	X5	Y5	Z5	X6	Y6	Z6	X7	Y7	Z7	X8	Y8	Z8	X9	Y9	Z9	X10	Y10	Z10	X11	Y11	Z11	X12	Y12	Z12	X13	Y13	Z13	X14	Y14	Z14	X15	Y15	Z15	X16	Y16	Z16	X17	Y17	Z17	X18	Y18	Z18	X19	Y19	Z19	X20	Y20	Z20	X21	Y21	Z21	X22	Y22	Z22	X23	Y23	Z23	X24	Y24	Z24	X25	Y25	Z25	X26	Y26	Z26	X27	Y27	Z27	X28	Y28	Z28	X29	Y29	Z29	X30	Y30	Z30	X31	Y31	Z31	X32	Y32	Z32	X33	Y33	Z33	X34	Y34	Z34	
336	1.675	289.78705	512.97333	-1090.056	288.17938	521.03766	-1349.8312				462.75528	604.50836	-1249.1399	255.49179	511.37631	-1041.8879	310.11996	516.74127	-1032.9204	218.29533	460.40204	-994.79993	80.206245	380.53848	-973.88641				148.42659	221.26549	-980.46326	46.161324	265.44748	-1025.587	128.23576	185.03912	-1018.4765	274.78354	66.528847	-1034.6342				316.97415	72.980293	-1088.7245	197.96284	69.863777	-1053.6456	145.07916	44.412594	-1076.6387				164.38455	27.366278	-996.71429	195.16158	450.68512	-1404.1207	278.97269	517.84906	-1381.7633	211.77664	509.44513	-1351.8163	77.679726	380.32568	-1386.8046				114.00131	223.31825	-1382.8972	47.890167	250.76172	-1329.4113	107.13241	189.42036	-1325.6107	284.05432	62.346664	-1350.7203				321.06241	66.705139	-1305.8405	197.74376	66.959419	-1331.0322	149.70837	48.605659	-1309.1226				165.90155	21.781239	-1382.0282
337	1.68	290.18729	513.0329	-1090.0195	288.58023	521.04425	-1349.8138				463.15735	604.4823	-1249.135	255.89421	511.45035	-1041.8741	310.52066	516.78955	-1032.8761	218.65053	460.47131	-994.83008	80.495193	380.70935	-974.01648				148.57947	221.39435	-980.55927	46.35408	265.64893	-1025.7083	128.35861	185.17189	-1018.5551	274.80435	66.536331	-1034.6636				316.99576	72.938431	-1088.7537	197.97929	69.871902	-1053.6682	145.08296	44.419937	-1076.6492				164.39073	27.389891	-996.73334	195.56805	450.75864	-1404.1021	279.38678	517.86993	-1381.7595	212.21181	509.52356	-1351.8074	78.028587	380.50418	-1386.8129				114.19505	223.45357	-1382.8892	48.092812	250.96297	-1329.4221	107.27289	189.55908	-1325.6166	284.08347	62.334141	-1350.7124				321.09775	66.674805	-1305.8279	197.78111	66.961037	-1331.0093	149.73056	48.610611	-1309.12				165.9077	21.809954	-1382.0172
338	1.685	290.57483	513.10492	-1089.9817	288.97604	521.0639	-1349.8008				463.55261	604.47144	-1249.1261	256.28436	511.53238	-1041.8549	310.90778	516.84662	-1032.8318	218.9975	460.54681	-994.85205	80.781624	380.87894	-974.13013				148.73361	221.52055	-980.64203	46.546211	265.84814	-1025.8104	128.48042	185.30231	-1018.6202	274.8237	66.54287	-1034.6885				317.01587	72.898918	-1088.7782	197.99341	69.878365	-1053.6865	145.08601	44.42812	-1076.6559				164.39612	27.409681	-996.74854	195.97244	450.83749	-1404.0948	279.79724	517.90033	-1381.7598	212.63998	509.60922	-1351.8086	78.37825	380.68268	-1386.8345				114.38941	223.58502	-1382.8899	48.294651	251.16342	-1329.446	107.41272	189.69568	-1325.6328	284.11246	62.320988	-1350.7054				321.13202	66.64534	-1305.8157	197.81416	66.964165	-1330.9917	149.75203	48.615749	-1309.1193				165.9144	21.837242	-1382.0079
339	1.69	290.94858	513.18829	-1089.9434	289.36676	521.09692	-1349.7926				463.94006	604.47455	-1249.1132	256.66159	511.62183	-1041.8311	311.28067	516.91174	-1032.7885	219.33574	460.62875	-994.86621	81.065201	381.04703	-974.22687				148.88844	221.64326	-980.71094	46.737667	266.04465	-1025.8936	128.60086	185.42995	-1018.6719	274.84146	66.548409	-1034.7092				317.03467	72.861565	-1088.7977	198.00563	69.883163	-1053.6998	145.08844	44.437096	-1076.6586				164.40077	27.425415	-996.75995	196.37444	450.9223	-1404.099	280.20395	517.94098	-1381.7642	213.06113	509.70215	-1351.8199	78.728668	380.8609	-1386.8691				114.58421	223.71277	-1382.8998	48.495564	251.36295	-1329.4839	107.55164	189.83043	-1325.6589	284.14127	62.307133	-1350.6995				321.16531	66.616661	-1305.8042	197.84229	66.969116	-1330.9806	149.77272	48.621113	-1309.1207				165.92162	21.862679	-1382.0006
340	1.695	291.30774	513.28217	-1089.9059	289.75232	521.14392	-1349.7889				464.31894	604.49054	-1249.0966	257.02548	511.71844	-1041.8035	311.63867	516.9848	-1032.7473	219.66484	460.71713	-994.87347	81.34552	381.21356	-974.30719				149.04312	221.76183	-980.76636	46.928261	266.23819	-1025.9578	128.71979	185.55453	-1018.7101	274.8576	66.552864	-1034.7255				317.05252	72.826256	-1088.8121	198.01631	69.886482	-1053.7084	145.09032	44.446808	-1076.6576				164.40463	27.437061	-996.76764	196.77376	451.01385	-1404.114	280.60657	517.99255	-1381.7728	213.47507	509.80246	-1351.8412	79.079765	381.03882	-1386.916				114.77939	223.83723	-1382.9185	48.695469	251.56155	-1329.5347	107.68942	189.96394	-1325.6946	284.16986	62.292587	-1350.6945				321.19763	66.588791	-1305.7936	197.86531	66.975922	-1330.9758	149.79253	48.626736	-1309.1246				165.92921	21.885942	-1381.995
341	1.7	291.65173	513.38599	-1089.8699	290.13281	521.20496	-1349.7896				464.68887	604.51892	-1249.0763	257.37555	511.82224	-1041.7733	311.9816	517.06567	-1032.709	219.98427	460.81219	-994.87463	81.62204	381.37857	-974.3717				149.19684	221.87578	-980.80902	47.117676	266.42841	-1026.0044	128.83698	185.67595	-1018.7361	274.87216	66.55619	-1034.7371				317.0697	72.792915	-1088.8213	198.02589	69.888618	-1053.7122	145.09177	44.457211	-1076.6528				164.40764	27.444798	-996.77197	197.17006	451.11288	-1404.139	281.00494	518.05573	-1381.7853	213.88164	509.91052	-1351.8715	79.431389	381.21634	-1386.9742				114.97482	223.95903	-1382.9464	48.894321	251.75932	-1329.5979	107.8259	190.09692	-1325.7391	284.19815	62.27739	-1350.6906				321.22891	66.561737	-1305.7836	197.88367	66.984383	-1330.9772	149.81134	48.632629	-1309.1307				165.9373	21.906752	-1381.9911
342	1.705	291.98013	513.49957	-1089.8361	290.50827	521.28021	-1349.7941				465.04938	604.55969	-1249.0524	257.71133	511.93307	-1041.7415	312.30914	517.15442	-1032.6744	220.2935	460.91403	-994.87103	81.894096	381.54211	-974.42242				149.34872	221.98508	-980.84039	47.305481	266.6153	-1026.0355	128.95226	185.79424	-1018.7513	274.88516	66.558334	-1034.7449				317.08658	72.761566	-1088.8258	198.03465	69.889854	-1053.7112	145.09291	44.468273	-1076.6451				164.40974	27.448982	-996.77338	197.56299	451.21997	-1404.1729	281.39874	518.13092	-1381.8009	214.28069	510.02676	-1351.9099	79.78334	381.39359	-1387.042				115.17027	224.07881	-1382.9829	49.092152	251.95625	-1329.6731	107.961	190.23015	-1325.792	284.22623	62.261585	-1350.6879				321.25919	66.535522	-1305.7744	197.89807	66.994133	-1330.9843	149.82915	48.638767	-1309.1393				165.94598	21.924898	-1381.9891
343	1.71	292.29297	513.62292	-1089.8048	290.87875	521.36969	-1349.8019				465.40045	604.61285	-1249.0256	258.03256	512.05109	-1041.7089	312.62143	517.25128	-1032.644	220.59209	461.02292	-994.86371	82.160988	381.7045	-974.46112				149.49806	222.08997	-980.862	47.491169	266.7988	-1026.0538	129.06543	185.90945	-1018.7572	274.89673	66.559158	-1034.7487				317.1033	72.732231	-1088.8258	198.04288	69.890457	-1053.7059	145.09375	44.479923	-1076.6349				164.41083	27.450127	-996.77228	197.95212	451.33542	-1404.2144	281.78763	518.21838	-1381.8193	214.67195	510.15155	-1351.9552	80.135277	381.57062	-1387.1182				115.36551	224.19734	-1383.0284	49.289017	252.15239	-1329.7584	108.0947	190.36412	-1325.8517	284.25406	62.245186	-1350.6862				321.28833	66.510139	-1305.767	197.90933	67.004799	-1330.9961	149.84589	48.645115	-1309.15				165.95512	21.940298	-1381.9886
